<svg width="512" height="512" viewBox="0 0 512 512" fill="none" xmlns="http://www.w3.org/2000/svg">
<rect width="512" height="512" fill="white"/>
<path d="M31.62 315V196.2H75.18L103.8 281.34H104.52L132.42 196.2H173.82V315H146.46L147.54 225.72H146.1L114.42 315H90.12L58.98 225.72H57.54L58.62 315H31.62ZM220.657 346.32C207.517 346.32 191.317 343.26 181.237 335.88L188.077 308.88C196.717 316.98 209.137 320.4 219.397 320.4C241.357 320.4 247.297 304.74 247.837 286.38L248.197 271.8H244.957C242.437 295.74 231.637 306.18 215.077 306.18C183.937 306.18 183.937 270 183.937 258.84V219.96H212.917V250.56C212.917 262.44 212.917 281.88 226.777 281.88C240.277 281.88 242.617 262.08 242.617 251.28V219.96H271.597V287.46C271.597 309.06 265.657 346.32 220.657 346.32ZM282.214 315V196.2H372.934V219.78H311.374V244.44H364.294V265.86H311.374V291.24H373.114V315H282.214ZM380.968 315V196.2H422.908C466.468 196.2 485.188 218.16 485.188 254.52C485.188 301.32 454.768 315 428.308 315H380.968ZM423.988 219.96H409.948V291.24H427.408C442.168 291.24 454.948 283.86 454.948 255.96C454.948 229.14 443.608 219.96 423.988 219.96Z" fill="black"/>
</svg>
